<?xml version="1.0" encoding="UTF-8"?>
<svg id="Layer_1" data-name="Layer 1" xmlns="http://www.w3.org/2000/svg" xmlns:xlink="http://www.w3.org/1999/xlink" viewBox="0 0 368 531">
  <defs>
    <style>
      .cls-1 {
        fill: url(#linear-gradient-2);
      }

      .cls-2 {
        fill: #fff;
      }

      .cls-3 {
        fill: url(#linear-gradient-3);
      }

      .cls-4 {
        fill: url(#linear-gradient);
      }
    </style>
    <linearGradient id="linear-gradient" x1="2.1" y1="53.06" x2="481.59" y2="465.92" gradientUnits="userSpaceOnUse">
      <stop offset="0" stop-color="#62e46d"/>
      <stop offset=".99" stop-color="#034f4a"/>
    </linearGradient>
    <linearGradient id="linear-gradient-2" x1="-43.31" y1="105.81" x2="436.18" y2="518.66" xlink:href="#linear-gradient"/>
    <linearGradient id="linear-gradient-3" x1="57.59" y1="-11.38" x2="537.07" y2="401.47" xlink:href="#linear-gradient"/>
  </defs>
  <path class="cls-2" d="M93,531c-28.93-2.29-65-35.98-65-65.5v-212.5h96.5l1.5,1.5v155c0,.7,4.35,9.62,5.16,10.84,4.91,7.26,13.6,12.04,22.29,12.71,13.33,1.01,53.77,1.88,65.6-.48,8.51-1.7,22.94-14.15,22.94-23.06v-156.5h98v212.5c0,30.3-36.06,62.39-65,65.5H93Z"/>
  <path class="cls-2" d="M92,0c.81,1.16,2.95,1.85,3.51,2.99,1.35,2.76,1.48,20.24-2.01,23.01h-56c-5.08-5.95-5.88-21.44,1.5-26h53Z"/>
  <path class="cls-2" d="M236,151v-58.5c0-7.67,23.48-36.97,29.99-43.01,32.42-30.12,90.86-50.63,95.06,13.97,1.9,29.24-2.85,63.17-19.55,87.55h-105.5ZM337.99,69.01c-21.28-7.54-46.87-9.62-64.99,5.98l64.99-5.98ZM329.99,99.01c-21.92-7.43-47.08-9.99-65.99,5.98l65.99-5.98ZM321.99,129.01c-21.61-7.17-47.93-10.52-65.99,5.98l65.99-5.98Z"/>
  <path class="cls-2" d="M7,92.5c2.35-15.16,24.61-25.25,32.42-38.58,4.15-7.09,5.28-14.88,6.69-22.81l38.28-.17c2.33,8.1,2.92,15.42,7.2,22.98,7.1,12.53,32.42,25.65,32.42,39.58v57.5h-19v-36H26v36H7v-58.5Z"/>
  <g>
    <path class="cls-4" d="M154.5,20l-1.5,1.5v373c0,4.75,7.07,10.47,11.74,11.26,6.44,1.08,33.14,1.1,39.32-.2,4.32-.91,10.94-6.62,10.94-11.06V21.5l-1.5-1.5h-59Z"/>
    <rect class="cls-1" y="173" width="131" height="53"/>
    <rect class="cls-3" x="237" y="173" width="131" height="53"/>
  </g>
</svg>